<svg width="512" height="512" viewBox="0 0 512 512" fill="none" xmlns="http://www.w3.org/2000/svg">
<rect width="512" height="512" fill="#666666"/>
<rect x="32" y="32" width="448" height="448" fill="#888888"/>
<rect x="64" y="64" width="32" height="32" fill="#FFFFFF"/>
<rect x="128" y="64" width="32" height="32" fill="#FFFFFF"/>
<rect x="192" y="64" width="32" height="32" fill="#FFFFFF"/>
<rect x="256" y="64" width="32" height="32" fill="#FFFFFF"/>
<rect x="320" y="64" width="32" height="32" fill="#FFFFFF"/>
<rect x="384" y="64" width="32" height="32" fill="#FFFFFF"/>
<rect x="64" y="128" width="32" height="32" fill="#FFFFFF"/>
<rect x="128" y="128" width="32" height="32" fill="#FFFFFF"/>
<rect x="192" y="128" width="32" height="32" fill="#FFFFFF"/>
<rect x="256" y="128" width="32" height="32" fill="#FFFFFF"/>
<rect x="320" y="128" width="32" height="32" fill="#FFFFFF"/>
<rect x="384" y="128" width="32" height="32" fill="#FFFFFF"/>
<rect x="64" y="192" width="32" height="32" fill="#FFFFFF"/>
<rect x="128" y="192" width="32" height="32" fill="#FFFFFF"/>
<rect x="192" y="192" width="32" height="32" fill="#FFFFFF"/>
<rect x="256" y="192" width="32" height="32" fill="#FFFFFF"/>
<rect x="320" y="192" width="32" height="32" fill="#FFFFFF"/>
<rect x="384" y="192" width="32" height="32" fill="#FFFFFF"/>
<rect x="64" y="256" width="32" height="32" fill="#FFFFFF"/>
<rect x="128" y="256" width="32" height="32" fill="#FFFFFF"/>
<rect x="192" y="256" width="32" height="32" fill="#FFFFFF"/>
<rect x="256" y="256" width="32" height="32" fill="#FFFFFF"/>
<rect x="320" y="256" width="32" height="32" fill="#FFFFFF"/>
<rect x="384" y="256" width="32" height="32" fill="#FFFFFF"/>
<rect x="64" y="320" width="32" height="32" fill="#FFFFFF"/>
<rect x="128" y="320" width="32" height="32" fill="#FFFFFF"/>
<rect x="192" y="320" width="32" height="32" fill="#FFFFFF"/>
<rect x="256" y="320" width="32" height="32" fill="#FFFFFF"/>
<rect x="320" y="320" width="32" height="32" fill="#FFFFFF"/>
<rect x="384" y="320" width="32" height="32" fill="#FFFFFF"/>
<rect x="64" y="384" width="32" height="32" fill="#FFFFFF"/>
<rect x="128" y="384" width="32" height="32" fill="#FFFFFF"/>
<rect x="192" y="384" width="32" height="32" fill="#FFFFFF"/>
<rect x="256" y="384" width="32" height="32" fill="#FFFFFF"/>
<rect x="320" y="384" width="32" height="32" fill="#FFFFFF"/>
<rect x="384" y="384" width="32" height="32" fill="#FFFFFF"/>
</svg>